# xmcd
#
# Track frame offsets: 
#        150
#        17492
#        37182
#        53229
#        67112
#        85843
#        103605
#        121153
#        137640
#        155745
#        171258
#
# Disc length: 2542 seconds
#
# Revision: 1
# Processed by: cddbd v1.5.2PL0 Copyright (c) Steve Scherf et al.
# Submitted via: ExactAudioCopy v1.0b3
#
DISCID=9409ec0b
DTITLE=Tim McGraw - Damn Country Music
DYEAR=2015
DGENRE=Country
TTITLE0=Here Tonight (feat. Gracie McGraw)
TTITLE1=Losin' You
TTITLE2=How I'll Always Be
TTITLE3=Damn Country Music
TTITLE4=Love Runs
TTITLE5=What You're Lookin' For
TTITLE6=Top of the World
TTITLE7=Don't Make Me Feel at Home
TTITLE8=Want You Back
TTITLE9=California (with Big and Rich)
TTITLE10=Humble and Kind
EXTD=YEAR: 2015
EXTT0=
EXTT1=
EXTT2=
EXTT3=
EXTT4=
EXTT5=
EXTT6=
EXTT7=
EXTT8=
EXTT9=
EXTT10=
PLAYORDER=
